<?xml version="1.0" encoding="UTF-8"?>
<svg width="30px" height="16px" viewBox="0 0 30 16" version="1.1" xmlns="http://www.w3.org/2000/svg" xmlns:xlink="http://www.w3.org/1999/xlink">
    <!-- Generator: Sketch 51.1 (57501) - http://www.bohemiancoding.com/sketch -->
    <title>mail</title>
    <desc>Created with Sketch.</desc>
    <defs></defs>
    <g id="Website-Portfolio" stroke="none" stroke-width="1" fill="none" fill-rule="evenodd">
        <g id="ebby-phone---new-stab-copy-24" transform="translate(-274.000000, -36.000000)" fill="#FFFFFF" stroke="#000000">
            <g id="mail" transform="translate(274.000000, 36.000000)">
                <rect id="Rectangle-37" x="0.5" y="0.5" width="29" height="15" rx="1"></rect>
                <path d="M1.23529412,1.2254902 C1.16287904,1.18686882 1.08207042,1.16666667 1,1.16666667 C0.723857625,1.16666667 0.5,1.39052429 0.5,1.66666667 L0.5,15 C0.5,15.2761424 0.723857625,15.5 1,15.5 L29,15.5 C29.2761424,15.5 29.5,15.2761424 29.5,15 L29.5,1.66666667 C29.5,1.58459625 29.4797978,1.50378762 29.4411765,1.43137255 C29.3112271,1.18771751 29.0083609,1.09554084 28.7647059,1.2254902 L15.7058824,8.19019608 C15.2647059,8.4254902 14.7352941,8.4254902 14.2941176,8.19019608 L1.23529412,1.2254902 Z" id="Rectangle-37-Copy"></path>
            </g>
        </g>
    </g>
</svg>